HIERARCHY
ROOT Hips
{
	OFFSET 0.000000 83.214638 0.000000
	CHANNELS 6 Xposition Yposition Zposition Xrotation Yrotation Zrotation
	JOINT Pelvis
	{
		OFFSET 0.000000 0.000000 0.000000
		CHANNELS 3 Xrotation Yrotation Zrotation
		JOINT LeftUpLeg
		{
			OFFSET 8.479700 -4.795502 -0.379100
			CHANNELS 3 Xrotation Yrotation Zrotation
			JOINT LeftLeg
			{
				OFFSET 0.024144 -32.555107 0.112900
				CHANNELS 3 Xrotation Yrotation Zrotation
				JOINT LeftFoot
				{
					OFFSET -0.024144 -32.638630 -3.012600
					CHANNELS 3 Xrotation Yrotation Zrotation
					JOINT LeftToeBase
					{
						OFFSET 0.970200 -13.225400 11.864200
						CHANNELS 3 Xrotation Yrotation Zrotation
						End Site
						{
							OFFSET 0.000000 12.319262 0.000000
						}
					}
					JOINT LFootTongue
					{
						OFFSET 1.142400 -1.059800 6.665200
						CHANNELS 3 Xrotation Yrotation Zrotation
						End Site
						{
							OFFSET 0.000000 12.319262 0.000000
						}
					}
				}
				JOINT LeftPantLeg
				{
					OFFSET 0.918482 -16.533964 -2.284700
					CHANNELS 3 Xrotation Yrotation Zrotation
					End Site
					{
						OFFSET 0.350399 24.744368 0.000000
					}
				}
			}
		}
		JOINT RightUpLeg
		{
			OFFSET -8.479700 -4.795502 -0.379100
			CHANNELS 3 Xrotation Yrotation Zrotation
			JOINT RightLeg
			{
				OFFSET -0.023144 -32.555092 0.112900
				CHANNELS 3 Xrotation Yrotation Zrotation
				JOINT RightFoot
				{
					OFFSET 0.023144 -32.638641 -3.012700
					CHANNELS 3 Xrotation Yrotation Zrotation
					JOINT RightToeBase
					{
						OFFSET -0.970200 -13.225400 11.864200
						CHANNELS 3 Xrotation Yrotation Zrotation
						End Site
						{
							OFFSET 0.000000 12.319244 0.000000
						}
					}
					JOINT RFootTongue
					{
						OFFSET -1.142200 -1.059800 6.665200
						CHANNELS 3 Xrotation Yrotation Zrotation
						End Site
						{
							OFFSET 0.000000 12.319243 0.000000
						}
					}
				}
				JOINT RightPantLeg
				{
					OFFSET -0.919482 -16.533978 -2.284800
					CHANNELS 3 Xrotation Yrotation Zrotation
					End Site
					{
						OFFSET -0.350400 24.744419 0.000000
					}
				}
			}
		}
	}
	JOINT Spine
	{
		OFFSET 0.000000 7.722000 1.166200
		CHANNELS 3 Xrotation Yrotation Zrotation
		JOINT Spine1
		{
			OFFSET 0.000000 12.024101 0.248800
			CHANNELS 3 Xrotation Yrotation Zrotation
			JOINT Spine2
			{
				OFFSET 0.000000 11.502998 -0.491200
				CHANNELS 3 Xrotation Yrotation Zrotation
				JOINT Neck
				{
					OFFSET 0.000000 18.430702 -3.123100
					CHANNELS 3 Xrotation Yrotation Zrotation
					JOINT Head
					{
						OFFSET 0.000000 9.051102 1.034000
						CHANNELS 3 Xrotation Yrotation Zrotation
						JOINT HairB
						{
							OFFSET 0.208400 24.786102 24.822300
							CHANNELS 3 Xrotation Yrotation Zrotation
							End Site
							{
								OFFSET 0.000000 32.263779 0.000000
							}
						}
						JOINT HairA
						{
							OFFSET -7.081100 24.428299 23.196600
							CHANNELS 3 Xrotation Yrotation Zrotation
							End Site
							{
								OFFSET 0.000000 32.263779 0.000000
							}
						}
						JOINT Hat
						{
							OFFSET 16.728800 15.048294 -15.439601
							CHANNELS 3 Xrotation Yrotation Zrotation
							End Site
							{
								OFFSET 0.000000 32.263779 0.000000
							}
						}
					}
				}
				JOINT LeftShoulder
				{
					OFFSET 6.197800 13.665199 -4.064700
					CHANNELS 3 Xrotation Yrotation Zrotation
					JOINT LeftArm
					{
						OFFSET 7.778100 -0.187103 -1.709300
						CHANNELS 3 Xrotation Yrotation Zrotation
						JOINT LeftForeArm
						{
							OFFSET 22.049376 0.000000 0.000000
							CHANNELS 3 Xrotation Yrotation Zrotation
							JOINT LeftHand
							{
								OFFSET 23.009392 0.000000 0.000000
								CHANNELS 3 Xrotation Yrotation Zrotation
								JOINT LeftHandThumb1
								{
									OFFSET 3.507191 -2.063065 3.133727
									CHANNELS 3 Xrotation Yrotation Zrotation
									JOINT LeftHandThumb2
									{
										OFFSET 3.101337 -1.790558 1.790558
										CHANNELS 3 Xrotation Yrotation Zrotation
										JOINT LeftHandThumb3
										{
											OFFSET 3.058640 -1.765907 1.765906
											CHANNELS 3 Xrotation Yrotation Zrotation
											End Site
											{
												OFFSET -0.415260 3.926476 -0.049563
											}
										}
									}
								}
								JOINT LeftHandIndex1
								{
									OFFSET 11.334419 -0.901459 3.706815
									CHANNELS 3 Xrotation Yrotation Zrotation
									JOINT LeftHandIndex2
									{
										OFFSET 3.283112 0.000000 0.000000
										CHANNELS 3 Xrotation Yrotation Zrotation
										JOINT LeftHandIndex3
										{
											OFFSET 3.323853 0.000000 0.000000
											CHANNELS 3 Xrotation Yrotation Zrotation
											End Site
											{
												OFFSET -1.135597 3.097809 0.402452
											}
										}
									}
								}
								JOINT LeftHandMiddle1
								{
									OFFSET 11.335861 0.000000 0.000000
									CHANNELS 3 Xrotation Yrotation Zrotation
									JOINT LeftHandMiddle2
									{
										OFFSET 3.410492 0.000000 0.000000
										CHANNELS 3 Xrotation Yrotation Zrotation
										JOINT LeftHandMiddle3
										{
											OFFSET 3.312172 0.000000 0.000000
											CHANNELS 3 Xrotation Yrotation Zrotation
											End Site
											{
												OFFSET -1.150200 3.080154 0.400270
											}
										}
									}
								}
								JOINT LeftHandRing1
								{
									OFFSET 11.514786 -0.013176 -3.003090
									CHANNELS 3 Xrotation Yrotation Zrotation
									JOINT LeftHandRing2
									{
										OFFSET 3.053307 0.000000 0.000000
										CHANNELS 3 Xrotation Yrotation Zrotation
										JOINT LeftHandRing3
										{
											OFFSET 3.295807 0.000000 0.000000
											CHANNELS 3 Xrotation Yrotation Zrotation
											End Site
											{
												OFFSET -1.281006 3.013344 0.375733
											}
										}
									}
								}
								JOINT LeftHandPinky1
								{
									OFFSET 10.518692 -0.960396 -5.730441
									CHANNELS 3 Xrotation Yrotation Zrotation
									JOINT LeftHandPinky2
									{
										OFFSET 2.861649 0.000000 0.000000
										CHANNELS 3 Xrotation Yrotation Zrotation
										JOINT LeftHandPinky3
										{
											OFFSET 2.863380 0.000000 0.000000
											CHANNELS 3 Xrotation Yrotation Zrotation
											End Site
											{
												OFFSET -0.843597 2.711159 0.369971
											}
										}
									}
								}
							}
							JOINT LSleeve
							{
								OFFSET 6.676277 -0.344902 -1.011730
								CHANNELS 3 Xrotation Yrotation Zrotation
								End Site
								{
									OFFSET 0.000000 14.885353 0.000000
								}
							}
						}
					}
				}
				JOINT RightShoulder
				{
					OFFSET -6.197800 13.665199 -4.064700
					CHANNELS 3 Xrotation Yrotation Zrotation
					JOINT RightArm
					{
						OFFSET -7.778100 -0.187103 -1.709300
						CHANNELS 3 Xrotation Yrotation Zrotation
						JOINT RightForeArm
						{
							OFFSET -22.049376 0.000000 0.000000
							CHANNELS 3 Xrotation Yrotation Zrotation
							JOINT RightHand
							{
								OFFSET -23.009392 0.000000 0.000000
								CHANNELS 3 Xrotation Yrotation Zrotation
								JOINT RightHandThumb1
								{
									OFFSET -3.507191 -2.063065 3.133727
									CHANNELS 3 Xrotation Yrotation Zrotation
									JOINT RightHandThumb2
									{
										OFFSET -3.101337 -1.790558 1.790558
										CHANNELS 3 Xrotation Yrotation Zrotation
										JOINT RightHandThumb3
										{
											OFFSET -3.058640 -1.765907 1.765906
											CHANNELS 3 Xrotation Yrotation Zrotation
											End Site
											{
												OFFSET 0.415260 3.926476 -0.049563
											}
										}
									}
								}
								JOINT RightHandIndex1
								{
									OFFSET -11.334419 -0.901459 3.706815
									CHANNELS 3 Xrotation Yrotation Zrotation
									JOINT RightHandIndex2
									{
										OFFSET -3.283112 0.000000 0.000000
										CHANNELS 3 Xrotation Yrotation Zrotation
										JOINT RightHandIndex3
										{
											OFFSET -3.323853 0.000000 0.000000
											CHANNELS 3 Xrotation Yrotation Zrotation
											End Site
											{
												OFFSET 1.135597 3.097809 0.402452
											}
										}
									}
								}
								JOINT RightHandMiddle1
								{
									OFFSET -11.335861 0.000000 0.000000
									CHANNELS 3 Xrotation Yrotation Zrotation
									JOINT RightHandMiddle2
									{
										OFFSET -3.410492 0.000000 0.000000
										CHANNELS 3 Xrotation Yrotation Zrotation
										JOINT RightHandMiddle3
										{
											OFFSET -3.312172 0.000000 0.000000
											CHANNELS 3 Xrotation Yrotation Zrotation
											End Site
											{
												OFFSET 1.150200 3.080154 0.400270
											}
										}
									}
								}
								JOINT RightHandRing1
								{
									OFFSET -11.514786 -0.013176 -3.003090
									CHANNELS 3 Xrotation Yrotation Zrotation
									JOINT RightHandRing2
									{
										OFFSET -3.053307 0.000000 0.000000
										CHANNELS 3 Xrotation Yrotation Zrotation
										JOINT RightHandRing3
										{
											OFFSET -3.295807 0.000000 0.000000
											CHANNELS 3 Xrotation Yrotation Zrotation
											End Site
											{
												OFFSET 1.281006 3.013344 0.375733
											}
										}
									}
								}
								JOINT RightHandPinky1
								{
									OFFSET -10.518692 -0.960396 -5.730441
									CHANNELS 3 Xrotation Yrotation Zrotation
									JOINT RightHandPinky2
									{
										OFFSET -2.861649 0.000000 0.000000
										CHANNELS 3 Xrotation Yrotation Zrotation
										JOINT RightHandPinky3
										{
											OFFSET -2.863380 0.000000 0.000000
											CHANNELS 3 Xrotation Yrotation Zrotation
											End Site
											{
												OFFSET 0.843597 2.711159 0.369971
											}
										}
									}
								}
							}
							JOINT RSleeve
							{
								OFFSET -6.676277 -0.344902 -1.011730
								CHANNELS 3 Xrotation Yrotation Zrotation
								End Site
								{
									OFFSET 0.000000 14.885353 0.000000
								}
							}
						}
					}
				}
				JOINT Backpack
				{
					OFFSET 0.000000 -2.471497 36.677502
					CHANNELS 3 Xrotation Yrotation Zrotation
					End Site
					{
						OFFSET 0.000000 20.427315 0.000000
					}
				}
				JOINT Hood
				{
					OFFSET 0.000000 18.754097 -10.431000
					CHANNELS 3 Xrotation Yrotation Zrotation
					JOINT Hood1
					{
						OFFSET 0.000000 -5.011002 -7.685901
						CHANNELS 3 Xrotation Yrotation Zrotation
						End Site
						{
							OFFSET 0.000000 9.175140 0.000000
						}
					}
				}
				JOINT LHoodieString
				{
					OFFSET 5.250500 16.397697 3.089900
					CHANNELS 3 Xrotation Yrotation Zrotation
					JOINT LHoodieString1
					{
						OFFSET 0.257700 -6.364304 3.694600
						CHANNELS 3 Xrotation Yrotation Zrotation
						JOINT LHoodieString2
						{
							OFFSET 0.000000 -9.643799 2.679100
							CHANNELS 3 Xrotation Yrotation Zrotation
							End Site
							{
								OFFSET 0.000000 10.009018 0.000000
							}
						}
					}
				}
				JOINT RHoodieString
				{
					OFFSET -5.250500 16.397697 3.089900
					CHANNELS 3 Xrotation Yrotation Zrotation
					JOINT RHoodieString1
					{
						OFFSET -0.257700 -6.364304 3.694600
						CHANNELS 3 Xrotation Yrotation Zrotation
						JOINT RHoodieString2
						{
							OFFSET 0.000000 -9.643799 2.679100
							CHANNELS 3 Xrotation Yrotation Zrotation
							End Site
							{
								OFFSET 0.000000 10.009018 0.000000
							}
						}
					}
				}
			}
			JOINT LBackpack_Strap
			{
				OFFSET 15.223200 -7.719803 -6.610900
				CHANNELS 3 Xrotation Yrotation Zrotation
				End Site
				{
					OFFSET 0.000000 16.040596 0.000000
				}
			}
			JOINT RBackpack_Strap
			{
				OFFSET -15.223000 -7.719803 -6.610900
				CHANNELS 3 Xrotation Yrotation Zrotation
				End Site
				{
					OFFSET 0.000000 16.040596 0.000000
				}
			}
		}
	}
	JOINT BoyFacialAnim_Joint
	{
		OFFSET 1.000000 -82.208099 -1.550900
		CHANNELS 3 Xrotation Yrotation Zrotation
		End Site
		{
			OFFSET 0.000000 30.012791 0.000000
		}
	}
}
MOTION
Frames: 5
Frame Time: 0.033333
-0.046147 70.906052 -0.155651 -12.247645 -19.328612 -1.791174 -0.000000 -0.000001 0.000000 -30.759627 7.271338 10.643574 91.368554 6.486582 -6.810992 6.412026 -4.635552 4.117488 0.000003 -0.000001 -0.000000 0.000003 -0.000001 0.000000 -0.000001 -0.000000 -0.000000 -28.189731 -12.194113 5.813769 68.102177 9.249834 -11.035590 -22.979873 2.197262 -9.026362 0.000000 -0.000000 -0.000000 0.000000 -0.000000 -0.000000 -0.000001 0.000000 -0.000001 7.304027 -1.541013 1.985618 6.480428 -1.779676 1.166334 6.469151 -1.791374 0.958913 0.747861 1.501024 -0.492534 7.116014 15.722996 -2.412292 0.000000 0.000000 -0.000000 0.000000 0.000000 -0.000000 0.000000 0.000000 -0.000000 5.950499 -28.614710 0.134459 -30.997113 -13.812817 -46.663999 -91.187294 4.355812 -83.800855 -58.988034 -9.569986 2.818787 0.699121 9.503398 -2.418118 5.975203 12.647530 1.348350 0.000002 -0.000001 0.000001 9.479710 -1.289798 -20.785562 0.709468 2.796414 -28.467146 0.000000 -0.000000 -0.000002 10.058166 -1.800596 -20.644735 1.774259 4.200481 -45.782075 0.000004 0.000001 -0.000001 1.254228 -0.073737 -17.945788 3.754094 5.463591 -68.965335 -0.000001 -0.000000 -0.000002 -7.938254 1.609099 -6.495672 2.210572 4.583653 -51.475212 -0.000005 0.000004 0.000000 0.000001 0.000000 0.000000 2.748182 3.161647 0.285376 16.921278 41.508381 25.894803 47.415064 137.576047 -50.268457 -0.313587 6.168223 -27.163061 13.942481 -4.273659 -5.300354 7.113217 -20.767549 -2.619514 -0.000000 0.000000 0.000002 0.357770 -5.832694 5.175841 0.094343 -0.933571 11.539868 -0.000000 -0.000001 0.000002 3.764093 -12.080517 1.143767 5.714306 -4.535865 103.133500 0.000001 0.000001 -0.000002 -12.155596 -12.623934 9.228318 6.566883 -4.248434 114.232312 0.000001 0.000001 -0.000001 -17.635731 -10.496832 3.325428 4.993661 -4.645034 94.147915 -0.000001 -0.000001 -0.000003 -0.000001 -0.000001 -0.000001 0.000001 -0.000002 -0.000000 0.000001 -0.000002 -0.000000 0.000001 -0.000002 -0.000000 0.000001 -0.000002 -0.000000 0.000001 -0.000002 -0.000000 0.000001 -0.000002 -0.000000 0.000001 -0.000002 -0.000000 0.000001 -0.000002 -0.000000 0.000001 -0.000002 -0.000000 0.000000 -0.000001 0.000000 0.000000 -0.000001 0.000000 -0.000000 -0.000001 0.000000 
-0.992344 72.537422 -11.748207 -14.449919 -18.995815 -3.351716 -0.000000 0.000002 0.000000 -8.503871 10.314633 8.127174 83.242507 4.785827 -6.664340 5.668253 -4.847458 4.437877 0.000000 0.000000 -0.000000 0.000000 0.000000 0.000000 0.000003 -0.000001 0.000000 -29.584001 -16.354328 10.989708 55.397240 10.756888 -12.232549 -1.615001 2.396455 -10.608063 -0.000000 0.000000 -0.000000 -0.000000 0.000000 -0.000000 -0.000000 -0.000001 0.000001 5.711590 -3.407235 -0.427229 7.286959 -3.411366 2.962982 7.441500 -3.177345 2.451830 -0.195413 2.354216 0.447861 8.942868 17.958369 -4.480577 0.000001 0.000001 -0.000000 0.000001 0.000001 -0.000000 0.000001 0.000001 -0.000000 5.950501 -28.614710 0.134458 -24.927185 -9.699844 -45.502126 -90.958312 5.681889 -87.540629 -58.822682 -12.578092 -0.336404 0.699119 9.503397 -2.418120 5.975204 12.647530 1.348351 0.000001 -0.000002 -0.000000 9.479710 -1.289802 -20.785563 0.709468 2.796412 -28.467144 -0.000002 -0.000001 -0.000002 10.058167 -1.800595 -20.644737 1.774259 4.200478 -45.782078 -0.000002 -0.000002 -0.000002 1.254228 -0.073739 -17.945788 3.754095 5.463595 -68.965335 0.000000 0.000000 -0.000004 -7.938255 1.609099 -6.495673 2.210571 4.583654 -51.475208 -0.000001 0.000000 -0.000000 0.000003 0.000000 0.000000 2.687648 3.504210 0.266309 19.048260 43.123513 24.772072 48.173249 134.397304 -52.177953 -4.131911 7.848435 -22.862192 13.942481 -4.273659 -5.300354 7.113222 -20.767545 -2.619512 0.000001 0.000000 0.000001 0.357769 -5.832691 5.175839 0.094344 -0.933574 11.539866 -0.000001 0.000001 0.000002 3.764092 -12.080515 1.143768 5.714305 -4.535865 103.133500 0.000001 0.000001 -0.000000 -12.155596 -12.623934 9.228320 6.566883 -4.248432 114.232312 0.000000 -0.000000 0.000000 -17.635731 -10.496831 3.325432 4.993659 -4.645032 94.147915 -0.000000 0.000001 0.000000 0.000000 -0.000000 0.000000 0.000001 0.000001 -0.000000 0.000001 0.000001 -0.000000 0.000001 0.000001 -0.000000 0.000001 0.000001 -0.000000 0.000001 0.000001 -0.000000 0.000000 0.000001 0.000000 0.000001 0.000001 -0.000000 0.000001 0.000001 -0.000000 0.000000 0.000001 0.000000 0.000000 -0.000000 -0.000000 0.000000 -0.000000 -0.000000 -0.000000 0.000002 0.000000 
-1.850426 74.877098 -22.953098 -13.746009 -20.443677 -2.793960 -0.000000 0.000001 0.000000 11.524935 12.872876 1.760842 61.849958 4.119647 -6.367870 15.975739 -3.021334 2.311301 0.000001 0.000000 -0.000000 0.000001 0.000000 -0.000000 -0.000004 0.000000 0.000000 -27.228506 -15.457109 15.561131 30.875498 13.532234 -11.355368 26.628688 5.926188 -8.293202 0.000001 -0.000000 0.000000 0.000001 -0.000000 0.000000 0.000001 -0.000000 0.000000 3.547488 -4.437400 -3.278417 7.539393 -3.765570 3.990028 7.838216 -3.304175 3.179236 -1.303271 3.324291 1.520128 11.167550 20.484968 -6.991410 -0.000001 -0.000000 -0.000000 -0.000001 -0.000000 -0.000000 -0.000001 -0.000000 -0.000000 5.950499 -28.614707 0.134458 -19.703233 -6.399973 -45.172744 -90.504911 6.610424 -91.821348 -58.077863 -14.903471 -2.730510 0.699125 9.503400 -2.418118 5.975203 12.647530 1.348347 0.000000 -0.000003 0.000000 9.479714 -1.289800 -20.785565 0.709466 2.796420 -28.467148 -0.000004 0.000002 -0.000007 10.058169 -1.800592 -20.644735 1.774257 4.200484 -45.782075 0.000002 -0.000003 -0.000000 1.254233 -0.073737 -17.945789 3.754096 5.463596 -68.965342 0.000004 -0.000000 -0.000004 -7.938250 1.609097 -6.495676 2.210572 4.583655 -51.475212 -0.000000 0.000005 0.000001 -0.000002 -0.000000 0.000000 3.041209 4.487997 0.251933 23.765138 43.328203 20.843166 48.978590 134.433914 -52.690026 -4.141956 10.889131 -22.583631 13.942480 -4.273657 -5.300354 7.113220 -20.767544 -2.619514 0.000001 0.000000 -0.000000 0.357770 -5.832690 5.175840 0.094344 -0.933573 11.539864 -0.000002 -0.000001 0.000003 3.764090 -12.080513 1.143768 5.714306 -4.535865 103.133500 0.000000 0.000001 0.000002 -12.155594 -12.623932 9.228319 6.566885 -4.248433 114.232312 -0.000001 0.000000 -0.000001 -17.635729 -10.496830 3.325427 4.993658 -4.645034 94.147915 0.000000 -0.000001 0.000000 -0.000000 0.000001 0.000001 0.000000 -0.000003 0.000000 0.000000 -0.000003 0.000000 0.000000 -0.000003 0.000000 0.000000 -0.000003 0.000000 0.000000 -0.000003 0.000000 -0.000000 -0.000001 0.000000 0.000000 -0.000003 0.000000 0.000000 -0.000003 0.000000 -0.000000 -0.000001 0.000000 0.000000 -0.000002 -0.000000 0.000000 -0.000002 -0.000000 -0.000000 0.000001 0.000000 
-2.132221 76.351532 -35.045330 -10.301309 -25.875133 -0.879070 -0.000001 -0.000002 0.000000 23.949903 14.145128 -7.732385 39.187729 4.113643 -6.938512 23.388714 1.883308 0.191380 0.000000 -0.000000 0.000000 0.000000 -0.000000 0.000000 0.000001 0.000000 -0.000000 -38.095725 -12.172873 18.844065 34.808850 9.866690 -12.798358 28.254044 4.208627 -5.409060 0.000000 -0.000001 0.000000 0.000000 -0.000001 0.000000 -0.000001 -0.000001 -0.000000 1.080532 -4.116117 -4.796436 7.139630 -3.065787 4.182780 7.397959 -2.613179 3.372812 -2.376667 4.234057 2.529098 13.413322 22.826388 -9.518060 0.000001 0.000000 0.000000 0.000001 0.000000 0.000000 0.000001 0.000000 0.000000 5.950499 -28.614709 0.134457 -17.065127 -1.712252 -45.656710 -90.066153 6.766293 -95.487417 -57.237969 -16.098402 -3.651788 0.699121 9.503396 -2.418118 5.975202 12.647528 1.348348 0.000000 -0.000001 0.000001 9.479712 -1.289803 -20.785562 0.709468 2.796412 -28.467148 -0.000004 0.000001 -0.000005 10.058166 -1.800596 -20.644732 1.774258 4.200481 -45.782075 0.000003 -0.000002 -0.000000 1.254229 -0.073742 -17.945788 3.754097 5.463594 -68.965335 0.000002 0.000000 -0.000002 -7.938255 1.609098 -6.495672 2.210573 4.583658 -51.475215 -0.000004 0.000001 -0.000000 0.000000 -0.000001 0.000000 3.664409 5.394558 0.243426 24.669989 44.718471 19.129225 46.090345 130.666464 -51.256666 -8.411408 11.514805 -20.867237 13.942483 -4.273661 -5.300354 7.113221 -20.767547 -2.619514 -0.000001 0.000000 0.000001 0.357771 -5.832688 5.175839 0.094345 -0.933574 11.539866 -0.000000 -0.000000 0.000002 3.764092 -12.080513 1.143765 5.714306 -4.535863 103.133500 0.000001 0.000000 0.000001 -12.155595 -12.623935 9.228319 6.566885 -4.248434 114.232312 0.000001 0.000002 -0.000001 -17.635731 -10.496830 3.325423 4.993659 -4.645031 94.147915 0.000001 -0.000002 -0.000000 0.000001 0.000001 -0.000001 -0.000000 -0.000002 -0.000001 -0.000000 -0.000002 -0.000001 -0.000000 -0.000002 -0.000001 -0.000000 -0.000002 -0.000001 -0.000000 -0.000002 -0.000001 -0.000000 -0.000000 -0.000001 -0.000000 -0.000002 -0.000001 -0.000000 -0.000002 -0.000001 -0.000000 -0.000000 -0.000001 -0.000000 0.000001 0.000000 -0.000000 0.000001 0.000000 -0.000001 -0.000002 0.000000 
-1.432835 76.567268 -47.555355 -6.975006 -32.195746 1.314485 0.000001 0.000001 0.000000 23.426051 15.446034 -17.353134 28.974178 5.644039 -5.163078 18.838548 8.153743 0.318579 0.000000 -0.000000 -0.000000 0.000000 -0.000000 -0.000000 -0.000001 0.000001 -0.000000 -52.129752 -4.665895 20.423314 53.490145 4.454506 -11.862971 13.820439 -4.042710 1.632129 0.000000 -0.000001 -0.000000 0.000000 -0.000001 -0.000000 0.000000 -0.000000 0.000000 0.588019 -3.266221 -4.394322 6.490797 -1.751728 3.468041 6.614685 -1.478963 2.897066 -3.192950 4.907714 3.279567 15.186451 24.533737 -11.508653 -0.000000 -0.000000 -0.000001 -0.000000 -0.000000 -0.000001 -0.000000 -0.000000 -0.000001 5.950500 -28.614710 0.134459 -16.241927 1.818573 -46.042076 -89.807897 6.273987 -98.240407 -56.927021 -16.894094 -4.174242 0.699121 9.503394 -2.418119 5.975201 12.647533 1.348349 -0.000001 -0.000001 0.000001 9.479711 -1.289798 -20.785563 0.709464 2.796418 -28.467139 0.000001 0.000002 -0.000005 10.058169 -1.800599 -20.644732 1.774259 4.200481 -45.782075 0.000006 -0.000001 -0.000000 1.254229 -0.073739 -17.945786 3.754092 5.463600 -68.965335 0.000001 -0.000002 0.000003 -7.938252 1.609097 -6.495671 2.210576 4.583653 -51.475208 -0.000004 0.000002 -0.000003 -0.000004 -0.000001 0.000001 5.264293 6.563437 0.232503 21.436021 45.212260 21.914167 46.276492 130.772195 -52.266855 -6.441453 9.971278 -17.335445 13.942481 -4.273659 -5.300354 7.113220 -20.767547 -2.619514 -0.000001 -0.000000 0.000001 0.357769 -5.832693 5.175840 0.094343 -0.933575 11.539865 0.000001 0.000002 0.000002 3.764090 -12.080519 1.143768 5.714307 -4.535864 103.133500 0.000001 -0.000000 0.000001 -12.155597 -12.623937 9.228317 6.566882 -4.248432 114.232305 0.000000 0.000001 0.000001 -17.635733 -10.496834 3.325424 4.993660 -4.645032 94.147915 -0.000001 -0.000000 0.000000 -0.000000 -0.000000 -0.000002 0.000000 -0.000001 0.000001 0.000000 -0.000001 0.000001 0.000000 -0.000001 0.000001 0.000000 -0.000001 0.000001 0.000000 -0.000001 0.000000 0.000000 0.000001 -0.000000 0.000000 -0.000001 0.000001 0.000000 -0.000001 0.000000 0.000000 0.000001 -0.000000 0.000000 -0.000001 0.000000 0.000000 -0.000001 0.000000 0.000001 0.000001 0.000000 
